<svg width="150" height="102" viewBox="0 0 150 102" fill="none" xmlns="http://www.w3.org/2000/svg">
<path d="M111 39C111 59.5092 95.0329 76 75.5 76C55.9671 76 40 59.5092 40 39C40 18.4908 55.9671 2 75.5 2C95.0329 2 111 18.4908 111 39Z" fill="white" stroke="black" stroke-width="4"/>
<path d="M73 39C73 59.5092 57.0329 76 37.5 76C17.9671 76 2 59.5092 2 39C2 18.4908 17.9671 2 37.5 2C57.0329 2 73 18.4908 73 39Z" stroke="black" stroke-width="4"/>
<path d="M148 39C148 59.5092 132.033 76 112.5 76C92.9671 76 77 59.5092 77 39C77 18.4908 92.9671 2 112.5 2C132.033 2 148 18.4908 148 39Z" stroke="black" stroke-width="4"/>
<rect width="38" height="78" fill="white"/>
<rect x="113" width="37" height="78" fill="white"/>
<line x1="40" x2="40" y2="102" stroke="black" stroke-width="4"/>
<line x1="113" x2="113" y2="102" stroke="black" stroke-width="4"/>
</svg>
